# Blender v2.75 (sub 0) OBJ File: 'gl-mg-glmg.blend'
# www.blender.org
mtllib open.mtl
o GLMG-DBB_nurbsToPoly35.004
v 6.862134 28.312729 6.889909
v -6.862047 28.312729 6.889987
v 7.242609 -38.463890 7.240514
v 5.903039 -38.463894 8.440403
v 4.356078 -38.463898 9.343495
v 2.665752 -38.463898 9.966447
v -0.896194 -38.463898 10.294931
v -2.665215 -38.463898 9.947916
v -4.356165 -38.463898 9.347805
v -5.903026 -38.463898 8.439622
v -7.242606 -38.463890 7.240517
v 7.134183 -31.038141 7.142121
v 5.820336 -31.038137 8.318104
v 4.294113 -31.038162 9.209263
v 2.626122 -31.038149 9.823784
v -0.882230 -31.038147 10.147073
v -2.627665 -31.038158 9.805201
v -4.293695 -31.038153 9.213696
v -5.820423 -31.038141 8.317271
v -7.134153 -31.038141 7.142148
v 7.167417 -23.622032 7.195185
v 5.858763 -23.622036 8.364797
v 4.320552 -23.622038 9.263311
v 2.638822 -23.622040 9.882495
v -0.885204 -23.622044 10.206730
v -2.644599 -23.622034 9.863136
v -4.319085 -23.622038 9.268155
v -5.859057 -23.622036 8.363827
v -7.167330 -23.622032 7.195263
v 0.869301 -8.787405 9.916148
v 0.882555 -31.038153 10.080944
v 0.861109 6.051037 9.822515
v 0.864321 -1.368542 9.859224
v 0.889024 -23.622026 10.141561
v 0.858621 13.471222 9.794086
v 0.894777 -38.463898 10.227151
v 0.877167 -16.205320 10.006051
v 0.851302 28.312737 9.710421
v 7.071462 -16.205315 7.099233
v 5.780541 -16.205338 8.252958
v 4.262833 -16.205341 9.139512
v 2.603502 -16.205345 9.750436
v -0.873331 -16.205355 10.070326
v -2.609284 -16.205338 9.731321
v -4.261364 -16.205343 9.144298
v -5.780836 -16.205338 8.251998
v -7.071374 -16.205315 7.099311
v 7.007807 -8.787395 7.035581
v 5.728652 -8.787424 8.178768
v 4.224541 -8.787431 9.057381
v 2.580070 -8.787436 9.662827
v -0.865454 -8.787446 9.979828
v -2.585856 -8.787424 9.643877
v -4.223073 -8.787433 9.062130
v -5.728948 -8.787424 8.177814
v -7.007720 -8.787395 7.035659
v 6.967501 -1.368531 6.995277
v 5.695798 -1.368560 8.131795
v 4.200297 -1.368565 9.005379
v 2.565235 -1.368570 9.607357
v -0.860467 -1.368579 9.922525
v -2.571022 -1.368559 9.588510
v -4.198828 -1.368567 9.010104
v -5.696094 -1.368560 8.130846
v -6.967414 -1.368531 6.995355
v 6.941512 6.051046 6.969288
v 5.674607 6.051023 8.101498
v 4.184661 6.051019 8.971842
v 2.555667 6.051015 9.571584
v -0.857251 6.051007 9.885572
v -2.561455 6.051023 9.552803
v -4.183191 6.051017 8.976550
v -5.674903 6.051023 8.100552
v -6.941423 6.051046 6.969366
v 6.921381 13.471227 6.949160
v 5.658193 13.471214 8.078031
v 4.172549 13.471213 8.945865
v 2.548256 13.471210 9.543879
v -0.854760 13.471207 9.856956
v -2.554046 13.471216 9.525150
v -4.171079 13.471211 8.950561
v -5.658489 13.471214 8.077085
v -6.921294 13.471227 6.949238
v 6.898861 20.892075 6.926637
v 5.639842 20.892080 8.051792
v 4.159006 20.892080 8.916818
v 2.539970 20.892080 9.512892
v -0.851974 20.892080 9.824952
v -2.545759 20.892080 9.494220
v -4.157537 20.892080 8.921501
v -5.640138 20.892078 8.050852
v -6.898774 20.892075 6.926715
v 0.855840 20.892078 9.762291
v 5.609909 28.312746 8.008989
v 4.136913 28.312746 8.869427
v 2.526447 28.312750 9.462341
v -0.847428 28.312752 9.772741
v -2.532241 28.312746 9.443763
v -4.135442 28.312750 8.874089
v -5.610205 28.312744 8.008052
v 6.862134 31.665989 6.917994
v -6.862047 31.665989 6.918073
v 0.851302 31.666000 9.738506
v 5.609909 31.666008 8.037075
v 4.136913 31.666008 8.897512
v 2.526447 31.666012 9.490427
v -0.847428 31.666016 9.800827
v -2.532241 31.666008 9.471848
v -4.135442 31.666012 8.902175
v -5.610205 31.666004 8.036138
vt 0.333333 3.500000
vt 0.333333 4.000000
vt 0.166667 4.000000
vt 0.166667 3.500000
vt 0.500000 2.000000
vt 0.666667 2.000000
vt 0.666667 2.500000
vt 0.500000 2.500000
vt 0.916667 2.500000
vt 1.000000 2.500000
vt 1.000000 3.000000
vt 0.916667 3.000000
vt 0.500000 0.500000
vt 0.500000 0.000000
vt 0.666667 0.000000
vt 0.666667 0.500000
vt 1.000000 3.500000
vt 0.916667 3.500000
vt 0.916667 0.500000
vt 0.916667 0.000000
vt 1.000000 0.000000
vt 1.000000 0.500000
vt 0.666667 1.000000
vt 0.500000 1.000000
vt 0.000000 1.000000
vt 0.083333 1.000000
vt 0.083333 1.500000
vt 0.000000 1.500000
vt 0.083333 4.000000
vt 0.083333 3.500000
vt 0.166667 0.000000
vt 0.166667 0.500000
vt 0.083333 0.500000
vt 0.083333 0.000000
vt 1.000000 4.000000
vt 0.916667 4.000000
vt 1.000000 1.000000
vt 0.916667 1.000000
vt 0.166667 1.000000
vt 0.166667 1.500000
vt 0.083333 1.750000
vt 0.166667 1.750000
vt 0.166667 2.000000
vt 0.083333 2.000000
vt 0.166667 2.500000
vt 0.083333 2.500000
vt 0.166667 3.000000
vt 0.083333 3.000000
vt 0.333333 3.000000
vt 0.333333 2.500000
vt 0.000000 1.750000
vt 0.333333 0.500000
vt 0.333333 0.000000
vt 0.333333 1.000000
vt 0.333333 1.500000
vt 0.333333 1.750000
vt 0.333333 2.000000
vt 0.833333 4.000000
vt 0.833333 3.500000
vt 0.750000 1.500000
vt 0.833333 1.500000
vt 0.833333 1.750000
vt 0.750000 1.750000
vt 0.500000 1.500000
vt 0.500000 1.750000
vt 0.666667 1.500000
vt 0.666667 1.750000
vt 0.916667 1.500000
vt 0.916667 1.750000
vt 0.000000 3.500000
vt 0.000000 3.000000
vt 0.000000 2.500000
vt 0.000000 2.000000
vt 0.500000 3.000000
vt 0.666667 3.000000
vt 0.666667 3.500000
vt 0.500000 3.500000
vt 1.000000 1.500000
vt 1.000000 1.750000
vt 1.000000 2.000000
vt 0.916667 2.000000
vt 0.000000 0.500000
vt 0.000000 0.000000
vt 0.000000 4.000000
vt 0.500000 4.000000
vt 0.750000 4.000000
vt 0.750000 3.500000
vt 0.750000 0.500000
vt 0.750000 1.000000
vt 0.750000 2.000000
vt 0.750000 2.500000
vt 0.750000 3.000000
vt 0.666667 4.000000
vt 0.833333 0.500000
vt 0.833333 1.000000
vt 0.833333 2.000000
vt 0.833333 2.500000
vt 0.833333 3.000000
vt 0.833333 0.000000
vt 0.750000 0.000000
vn -0.589200 -0.003800 0.808000
vn -0.666100 0.015200 0.745700
vn -0.666300 0.005000 0.745700
vn -0.604500 0.005100 0.796600
vn -0.078000 0.010000 0.996900
vn -0.078000 0.006400 0.996900
vn -0.264000 0.006400 0.964500
vn -0.264000 0.010000 0.964500
vn -0.264000 0.005900 0.964500
vn -0.264000 -0.000500 0.964500
vn -0.422600 -0.000000 0.906300
vn -0.422500 0.005700 0.906300
vn 0.588300 -0.009000 0.808600
vn 0.666300 0.009900 0.745600
vn 0.660700 0.009400 0.750600
vn 0.572300 0.006400 0.820000
vn -0.599600 0.013300 0.800200
vn -0.588800 0.025400 0.807900
vn 0.588500 -0.013400 0.808400
vn 0.665700 0.001700 0.746200
vn 0.666400 0.000400 0.745600
vn 0.588300 -0.019300 0.808400
vn 0.426600 0.006400 0.904400
vn 0.426600 0.010000 0.904400
vn 0.426800 0.019900 0.904100
vn 0.426200 0.005900 0.904600
vn 0.247100 0.005100 0.969000
vn 0.247400 0.019900 0.968700
vn -0.666000 0.001400 0.746000
vn -0.605000 0.006500 0.796200
vn 0.660900 0.008100 0.750500
vn 0.572300 0.005100 0.820100
vn 0.589100 -0.013100 0.808000
vn 0.666900 0.005100 0.745200
vn -0.666100 0.000400 0.745800
vn -0.663700 -0.001800 0.748000
vn 0.426700 -0.000300 0.904400
vn 0.426600 0.005700 0.904400
vn 0.426600 0.005200 0.904400
vn 0.247200 0.005100 0.968900
vn 0.091800 0.006600 0.995800
vn 0.091700 0.005100 0.995800
vn -0.078000 0.005200 0.996900
vn -0.077200 0.005900 0.997000
vn -0.264000 0.005200 0.964500
vn -0.263400 0.005900 0.964700
vn -0.422500 0.005200 0.906400
vn -0.421900 0.005900 0.906600
vn -0.422400 0.015300 0.906300
vn -0.263900 0.015300 0.964400
vn 0.091800 0.019800 0.995600
vn 0.572900 0.015300 0.819500
vn 0.666300 0.015200 0.745500
vn 0.426500 0.015300 0.904300
vn 0.247300 0.015300 0.968800
vn 0.091700 0.015300 0.995700
vn -0.078000 0.015400 0.996800
vn -0.663800 -0.003400 0.747900
vn -0.604900 0.004100 0.796300
vn 0.247300 0.004400 0.968900
vn 0.247300 0.004100 0.968900
vn 0.091700 0.004100 0.995800
vn 0.091700 0.004400 0.995800
vn 0.247300 0.010000 0.968900
vn 0.091700 0.009900 0.995700
vn 0.247300 0.006400 0.968900
vn 0.091700 0.006300 0.995800
vn 0.247300 0.005400 0.968900
vn 0.091800 0.005600 0.995800
vn -0.573300 0.019800 0.819100
vn -0.422200 0.019900 0.906300
vn -0.263800 0.019900 0.964400
vn -0.077900 0.020000 0.996800
vn -0.422500 0.010000 0.906300
vn -0.422500 0.006400 0.906300
vn -0.573700 0.006400 0.819000
vn -0.588900 0.029700 0.807700
vn 0.247400 -0.000500 0.968900
vn 0.091700 -0.000700 0.995800
vn -0.078000 -0.000600 0.997000
vn -0.078000 0.005700 0.996900
vn 0.602500 0.012900 0.798000
vn 0.666700 0.019700 0.745100
vn -0.654600 0.019600 0.755700
vn -0.663800 0.002400 0.747900
vn -0.666100 0.004400 0.745800
vn -0.604300 0.004400 0.796700
vn 0.588200 0.024100 0.808400
vn 0.426600 0.004400 0.904400
vn -0.078000 0.004400 0.996900
vn -0.264000 0.004400 0.964500
vn -0.422500 0.004400 0.906400
vn -0.666100 0.006300 0.745800
vn 0.588200 0.023800 0.808400
vn 0.426600 0.004100 0.904400
vn -0.078000 0.004100 0.996900
vn -0.264000 0.004100 0.964500
vn -0.422500 0.004100 0.906400
vn 0.660700 0.007200 0.750600
vn 0.660700 0.007500 0.750600
vn 0.666300 -0.006200 0.745600
vn 0.572000 -0.006800 0.820200
vn 0.426400 -0.007600 0.904500
vn -0.422300 -0.007800 0.906400
vn -0.583000 -0.024100 0.812100
vn -0.263900 -0.008100 0.964500
vn 0.091700 -0.008300 0.995800
vn -0.078000 -0.008300 0.996900
vn 0.247200 -0.008100 0.968900
vn -0.666100 -0.006200 0.745800
usemtl openMat
s 1
f 46/1/1 47/2/2 29/3/3 28/4/4
f 52/5/5 61/6/6 62/7/7 53/8/8
f 89/9/9 98/10/10 99/11/11 90/12/12
f 49/13/13 48/14/14 57/15/15 58/16/16
f 99/11/11 100/17/17 91/18/18 90/12/12
f 85/19/19 84/20/20 1/21/21 94/22/22
f 49/13/13 58/16/16 59/23/23 50/24/24
f 5/25/25 14/26/26 15/27/27 6/28/28
f 28/4/4 29/3/3 20/29/29 19/30/30
f 21/31/31 22/32/32 13/33/33 12/34/34
f 100/17/17 2/35/35 92/36/36 91/18/18
f 85/19/19 94/22/22 95/37/37 86/38/38
f 13/33/33 22/32/32 23/39/39 14/26/26
f 14/26/26 23/39/39 24/40/40 15/27/27
f 31/41/41 34/42/42 25/43/43 16/44/44
f 16/44/44 25/43/43 26/45/45 17/46/46
f 17/46/46 26/45/45 27/47/47 18/48/48
f 18/48/48 27/47/47 28/4/4 19/30/30
f 45/49/49 46/1/1 28/4/4 27/47/47
f 44/50/50 45/49/49 27/47/47 26/45/45
f 6/28/28 15/27/27 31/41/41 36/51/51
f 40/52/52 22/32/32 21/31/31 39/53/53
f 22/32/32 40/52/52 41/54/54 23/39/39
f 41/54/54 42/55/55 24/40/40 23/39/39
f 37/56/56 43/57/57 25/43/43 34/42/42
f 92/36/36 83/58/58 82/59/59 91/18/18
f 69/60/60 78/61/61 35/62/62 32/63/63
f 42/55/55 51/64/64 30/65/65 37/56/56
f 42/55/55 37/56/56 34/42/42 24/40/40
f 60/66/66 69/60/60 32/63/63 33/67/67
f 78/61/61 87/68/68 93/69/69 35/62/62
f 15/27/27 24/40/40 34/42/42 31/41/41
f 25/43/43 43/57/57 44/50/50 26/45/45
f 18/48/48 19/30/30 10/70/70 9/71/71
f 50/24/24 59/23/23 60/66/66 51/64/64
f 16/44/44 17/46/46 8/72/72 7/73/73
f 54/74/74 63/75/75 64/76/76 55/77/77
f 86/38/38 95/37/37 96/78/78 87/68/68
f 93/69/69 38/79/79 97/80/80 88/81/81
f 50/24/24 51/64/64 42/55/55 41/54/54
f 33/67/67 61/6/6 52/5/5 30/65/65
f 87/68/68 96/78/78 38/79/79 93/69/69
f 60/66/66 33/67/67 30/65/65 51/64/64
f 4/82/82 13/33/33 14/26/26 5/25/25
f 52/5/5 53/8/8 44/50/50 43/57/57
f 4/82/82 3/83/83 12/34/34 13/33/33
f 20/29/29 11/84/84 10/70/70 19/30/30
f 56/85/85 47/2/2 46/1/1 55/77/77
f 40/52/52 39/53/53 48/14/14 49/13/13
f 97/80/80 98/10/10 89/9/9 88/81/81
f 83/58/58 74/86/86 73/87/87 82/59/59
f 58/16/16 67/88/88 68/89/89 59/23/23
f 59/23/23 68/89/89 69/60/60 60/66/66
f 33/67/67 32/63/63 70/90/90 61/6/6
f 61/6/6 70/90/90 71/91/91 62/7/7
f 62/7/7 71/91/91 72/92/92 63/75/75
f 63/75/75 72/92/92 73/87/87 64/76/76
f 56/85/85 55/77/77 64/76/76 65/93/93
f 67/88/88 76/94/94 77/95/95 68/89/89
f 68/89/89 77/95/95 78/61/61 69/60/60
f 32/63/63 35/62/62 79/96/96 70/90/90
f 70/90/90 79/96/96 80/97/97 71/91/91
f 71/91/91 80/97/97 81/98/98 72/92/92
f 72/92/92 81/98/98 82/59/59 73/87/87
f 73/87/87 74/86/86 65/93/93 64/76/76
f 76/94/94 85/19/19 86/38/38 77/95/95
f 77/95/95 86/38/38 87/68/68 78/61/61
f 35/62/62 93/69/69 88/81/81 79/96/96
f 79/96/96 88/81/81 89/9/9 80/97/97
f 80/97/97 89/9/9 90/12/12 81/98/98
f 81/98/98 90/12/12 91/18/18 82/59/59
f 75/99/99 76/94/94 67/88/88 66/100/100
f 66/100/100 67/88/88 58/16/16 57/15/15
f 37/56/56 30/65/65 52/5/5 43/57/57
f 36/51/51 31/41/41 16/44/44 7/73/73
f 40/52/52 49/13/13 50/24/24 41/54/54
f 54/74/74 55/77/77 46/1/1 45/49/49
f 53/8/8 62/7/7 63/75/75 54/74/74
f 8/72/72 17/46/46 18/48/48 9/71/71
f 85/19/19 76/94/94 75/99/99 84/20/20
f 44/50/50 53/8/8 54/74/74 45/49/49
f 94/22/22 1/21/21 101/21/101 104/22/102
f 95/37/37 94/22/22 104/22/102 105/37/103
f 100/17/17 99/11/11 109/11/104 110/17/105
f 99/11/11 98/10/10 108/10/106 109/11/104
f 97/80/80 38/79/79 103/79/107 107/80/108
f 98/10/10 97/80/80 107/80/108 108/10/106
f 96/78/78 95/37/37 105/37/103 106/78/109
f 2/35/35 100/17/17 110/17/105 102/35/110
f 38/79/79 96/78/78 106/78/109 103/79/107
