<?xml version="1.0" encoding="UTF-8" standalone="no"?>
<!-- Created with Inkscape (http://www.inkscape.org/) -->

<svg
   xmlns:dc="http://purl.org/dc/elements/1.1/"
   xmlns:cc="http://creativecommons.org/ns#"
   xmlns:rdf="http://www.w3.org/1999/02/22-rdf-syntax-ns#"
   xmlns:svg="http://www.w3.org/2000/svg"
   xmlns="http://www.w3.org/2000/svg"
   xmlns:sodipodi="http://sodipodi.sourceforge.net/DTD/sodipodi-0.dtd"
   xmlns:inkscape="http://www.inkscape.org/namespaces/inkscape"
   width="210mm"
   height="297mm"
   viewBox="0 0 744.09448819 1052.3622047"
   id="svg2"
   version="1.1"
   inkscape:version="0.91 r13725"
   sodipodi:docname="logo.svg">
  <defs
     id="defs4" />
  <sodipodi:namedview
     id="base"
     pagecolor="#ffffff"
     bordercolor="#666666"
     borderopacity="1.0"
     inkscape:pageopacity="0.0"
     inkscape:pageshadow="2"
     inkscape:zoom="0.98994949"
     inkscape:cx="541.26776"
     inkscape:cy="552.32179"
     inkscape:document-units="px"
     inkscape:current-layer="layer1"
     showgrid="false"
     inkscape:window-width="1920"
     inkscape:window-height="1016"
     inkscape:window-x="0"
     inkscape:window-y="27"
     inkscape:window-maximized="1" />
  <metadata
     id="metadata7">
    <rdf:RDF>
      <cc:Work
         rdf:about="">
        <dc:format>image/svg+xml</dc:format>
        <dc:type
           rdf:resource="http://purl.org/dc/dcmitype/StillImage" />
        <dc:title></dc:title>
      </cc:Work>
    </rdf:RDF>
  </metadata>
  <g
     inkscape:label="Layer 1"
     inkscape:groupmode="layer"
     id="layer1">
    <path
       style="fill-opacity:1"
       d="m 414.87465,644.78976 c 1.30998,-0.59687 3.13115,-2.3538 4.04705,-3.90429 1.53081,-2.59146 1.66527,22.70312 1.66527,-97.40054 0,-93.60783 0.69924,-167.92113 1.12707,-171.20032 0.91448,-7.00924 8.41838,-13.61048 14.09583,-15.88215 5.79299,-2.3179 8.58666,-2.2392 54.60188,1.53817 33.4595,2.74667 40.4666,3.08087 41.1575,1.96297 1.4783,-2.39193 0.026,-3.82569 -11.267,-11.12366 -35.97462,-23.24794 -78.63138,-39.2585 -120.71528,-45.30863 -26.77978,-3.84995 -48.91209,-4.26655 -78,-1.46821 -14.40388,1.38569 -16.36453,2.32174 -17.97345,8.58081 -3.24648,12.62954 -1.99256,33.01765 2.32414,37.78965 2.07148,2.28997 3.07271,2.43483 27.64931,4.00042 14.93407,0.95133 27.46594,1.98525 30.03168,3.07055 10.09182,4.26883 16.74767,8.75182 16.97913,17.97282 0.45875,57.92363 -0.66671,119.25121 -1.48742,173.45762 -0.33349,23.375 -0.8476,45.65 -1.14248,49.5 -0.65865,8.59961 1.39778,19.13167 5.28605,27.07255 3.53042,7.21004 12.24904,16.09169 19.31627,19.67745 5.87004,2.97833 8.60838,3.34883 12.30445,1.66479 z"
       id="path3349"
       inkscape:connector-curvature="0"
       sodipodi:nodetypes="ssssssssssssssccssss" />
  </g>
</svg>
