# Blender v2.75 (sub 0) OBJ File: ''
# www.blender.org
mtllib glmgDoor.mtl
o GLMG-Door
v -1.156167 -4.380602 1.650400
v -1.414275 -4.380598 1.419862
v -1.433466 -5.863942 1.439053
v -1.171812 -5.863942 1.672765
v -0.173091 -2.897024 1.995965
v -0.172093 -1.413251 1.984505
v -0.514204 -1.413247 1.917702
v -0.517171 -2.897020 1.928775
v -0.509152 3.038881 1.898844
v -0.506448 4.523014 1.888753
v -0.827088 4.523015 1.774818
v -0.831507 3.038881 1.784300
v 1.145730 -2.897020 1.635754
v 1.401561 -2.897014 1.407116
v 1.393500 -1.413241 1.399055
v 1.139160 -1.413247 1.626359
v -1.122041 4.523014 1.601610
v -1.128028 3.038881 1.610170
v 1.127968 3.038881 1.610358
v 1.379772 3.038880 1.385327
v 1.372427 4.523011 1.377982
v 1.121982 4.523014 1.601798
v 0.840059 -1.413248 1.801076
v 0.844908 -2.897021 1.811476
v 0.871216 -8.832314 1.868699
v 0.858823 -7.347167 1.841853
v 0.525224 -7.347165 1.964757
v 0.533150 -8.832314 1.993289
v -1.426831 -7.347163 1.428429
v -1.164085 -7.347163 1.663454
v 1.433483 -5.863942 1.439037
v 1.171752 -5.863942 1.672959
v 1.164067 -7.347163 1.663621
v 1.426837 -7.347163 1.428424
v -1.372409 4.523011 1.377997
v -1.379755 3.038880 1.385343
v 0.827383 4.523014 1.773885
v 0.831801 3.038881 1.783364
v 0.864110 -5.863943 1.852662
v 0.527764 -5.863943 1.976499
v 0.176511 -7.347166 2.016189
v 0.177805 -5.863940 2.028312
v -0.177041 -5.863944 2.041346
v -0.176446 -7.347165 2.029415
v -0.528920 -5.863942 1.972627
v -0.525533 -7.347167 1.961040
v -0.863817 -5.863943 1.853631
v -0.858739 -7.347166 1.842739
v -0.852273 -4.380604 1.828860
v -0.521857 -4.380602 1.946264
v 0.178955 -8.832314 2.045429
v 1.156108 -4.380603 1.650592
v 1.414292 -4.380598 1.419847
v 0.852566 -4.380603 1.827902
v 0.520700 -4.380604 1.950087
v 0.175433 -4.380599 2.001210
v -0.174666 -4.380606 2.014065
v -1.384259 1.554710 1.389848
v -1.131698 1.554708 1.615417
v 0.511133 0.070668 1.914317
v 0.509651 1.554707 1.908776
v 0.171724 1.554709 1.958817
v 0.172222 0.070672 1.964503
v 0.516014 -2.897022 1.932565
v 0.173860 -2.897016 1.983230
v 0.513047 -1.413249 1.921471
v 0.172864 -1.413243 1.971845
v 0.507994 3.038881 1.902578
v 0.171168 3.038881 1.952458
v -1.180605 -8.832314 1.687924
v -0.871233 -8.832314 1.869561
v -0.533043 -8.832314 1.989583
v -0.179239 -8.832314 2.058985
v -0.844615 -2.897022 1.812426
v -0.839766 -1.413249 1.802021
v -1.139219 -1.413247 1.626169
v -1.145790 -2.897020 1.635563
v 0.505289 4.523015 1.892468
v 0.170260 4.523013 1.942084
v -0.169486 4.523015 1.954548
v -0.170395 3.038881 1.964990
v 1.180608 -8.832314 1.688081
v 1.448522 -8.832313 1.448103
v -1.448521 -8.832313 1.448103
v -1.401544 -2.897014 1.407132
v -1.388285 0.070674 1.393873
v -1.134981 0.070670 1.620110
v 1.134921 0.070670 1.620300
v 0.836932 0.070669 1.794368
v -0.171450 0.070666 1.977115
v -0.512291 0.070670 1.910561
v -0.836638 0.070668 1.795310
v -1.393483 -1.413241 1.399071
v 1.131639 1.554708 1.615606
v 0.834510 1.554707 1.789173
v -0.170952 1.554706 1.971391
v -0.510809 1.554708 1.905030
v -0.834216 1.554707 1.790112
v 1.384276 1.554710 1.389832
v 1.388302 0.070674 1.393858
v 1.372427 5.193663 1.383599
v 1.121982 5.193666 1.607415
v 0.827383 5.193666 1.779503
v -0.827088 5.193667 1.780435
v -1.122041 5.193666 1.607227
v -0.506448 5.193666 1.894370
v 0.170260 5.193665 1.947701
v -0.169486 5.193668 1.960165
v 0.505289 5.193667 1.898085
v -1.372409 5.193663 1.383615
vt 0.333333 3.500000
vt 0.333333 4.000000
vt 0.166667 4.000000
vt 0.166667 3.500000
vt 0.500000 2.000000
vt 0.666667 2.000000
vt 0.666667 2.500000
vt 0.500000 2.500000
vt 0.916667 2.500000
vt 1.000000 2.500000
vt 1.000000 3.000000
vt 0.916667 3.000000
vt 0.500000 0.500000
vt 0.500000 0.000000
vt 0.666667 0.000000
vt 0.666667 0.500000
vt 1.000000 3.500000
vt 0.916667 3.500000
vt 0.916667 0.500000
vt 0.916667 0.000000
vt 1.000000 0.000000
vt 1.000000 0.500000
vt 0.666667 1.000000
vt 0.500000 1.000000
vt 0.000000 1.000000
vt 0.083333 1.000000
vt 0.083333 1.500000
vt 0.000000 1.500000
vt 0.083333 4.000000
vt 0.083333 3.500000
vt 0.166667 0.000000
vt 0.166667 0.500000
vt 0.083333 0.500000
vt 0.083333 0.000000
vt 1.000000 4.000000
vt 0.916667 4.000000
vt 1.000000 1.000000
vt 0.916667 1.000000
vt 0.166667 1.000000
vt 0.166667 1.500000
vt 0.083333 1.750000
vt 0.166667 1.750000
vt 0.166667 2.000000
vt 0.083333 2.000000
vt 0.166667 2.500000
vt 0.083333 2.500000
vt 0.166667 3.000000
vt 0.083333 3.000000
vt 0.333333 3.000000
vt 0.333333 2.500000
vt 0.000000 1.750000
vt 0.333333 0.500000
vt 0.333333 0.000000
vt 0.333333 1.000000
vt 0.333333 1.500000
vt 0.333333 1.750000
vt 0.333333 2.000000
vt 0.833333 4.000000
vt 0.833333 3.500000
vt 0.750000 1.500000
vt 0.833333 1.500000
vt 0.833333 1.750000
vt 0.750000 1.750000
vt 0.500000 1.500000
vt 0.500000 1.750000
vt 0.666667 1.500000
vt 0.666667 1.750000
vt 0.916667 1.500000
vt 0.916667 1.750000
vt 0.000000 3.500000
vt 0.000000 3.000000
vt 0.000000 2.500000
vt 0.000000 2.000000
vt 0.500000 3.000000
vt 0.666667 3.000000
vt 0.666667 3.500000
vt 0.500000 3.500000
vt 1.000000 1.500000
vt 1.000000 1.750000
vt 1.000000 2.000000
vt 0.916667 2.000000
vt 0.000000 0.500000
vt 0.000000 0.000000
vt 0.000000 4.000000
vt 0.500000 4.000000
vt 0.750000 4.000000
vt 0.750000 3.500000
vt 0.750000 0.500000
vt 0.750000 1.000000
vt 0.750000 2.000000
vt 0.750000 2.500000
vt 0.750000 3.000000
vt 0.666667 4.000000
vt 0.833333 0.500000
vt 0.833333 1.000000
vt 0.833333 2.000000
vt 0.833333 2.500000
vt 0.833333 3.000000
vt 0.833333 0.000000
vt 0.750000 0.000000
vn -0.589200 -0.003800 0.808000
vn -0.666100 0.015200 0.745700
vn -0.666300 0.005000 0.745700
vn -0.604500 0.005100 0.796600
vn -0.078000 0.010000 0.996900
vn -0.078000 0.006400 0.996900
vn -0.264000 0.006400 0.964500
vn -0.264000 0.010000 0.964500
vn -0.264000 0.005700 0.964500
vn -0.264000 -0.000500 0.964500
vn -0.422600 -0.000300 0.906300
vn -0.422500 0.005700 0.906300
vn 0.588300 -0.009000 0.808600
vn 0.666300 0.009900 0.745600
vn 0.660700 0.009400 0.750600
vn 0.572300 0.006400 0.820000
vn -0.599600 0.013300 0.800200
vn -0.588800 0.025400 0.807900
vn 0.588500 -0.013400 0.808400
vn 0.665700 0.001700 0.746200
vn 0.666400 0.000400 0.745600
vn 0.588400 -0.019300 0.808400
vn 0.426600 0.006400 0.904400
vn 0.426600 0.010000 0.904400
vn 0.426500 0.019900 0.904300
vn 0.426600 0.005900 0.904400
vn 0.247100 0.005200 0.969000
vn 0.247400 0.019900 0.968700
vn -0.666000 0.001400 0.746000
vn -0.605000 0.006500 0.796200
vn 0.660900 0.008100 0.750500
vn 0.572300 0.005100 0.820100
vn 0.589100 -0.013100 0.808000
vn 0.666900 0.005100 0.745200
vn -0.666100 0.000400 0.745800
vn -0.663700 -0.001800 0.748000
vn 0.426700 -0.000300 0.904400
vn 0.426600 0.005700 0.904400
vn 0.426600 0.005200 0.904400
vn 0.247200 0.005100 0.968900
vn 0.091800 0.006500 0.995800
vn 0.091700 0.005100 0.995800
vn -0.078000 0.005200 0.996900
vn -0.077100 0.005900 0.997000
vn -0.264000 0.005200 0.964500
vn -0.263300 0.005900 0.964700
vn -0.422500 0.005200 0.906400
vn -0.422400 0.005900 0.906400
vn -0.422400 0.015300 0.906300
vn -0.263900 0.015300 0.964400
vn 0.091800 0.019800 0.995600
vn 0.572900 0.015300 0.819500
vn 0.666300 0.015200 0.745500
vn 0.426500 0.015300 0.904300
vn 0.247300 0.015300 0.968800
vn 0.091700 0.015300 0.995700
vn -0.078000 0.015400 0.996800
vn -0.663800 -0.003400 0.747900
vn -0.604900 0.004100 0.796300
vn 0.247300 0.004400 0.968900
vn 0.247300 0.004100 0.968900
vn 0.091700 0.004100 0.995800
vn 0.091700 0.004400 0.995800
vn 0.247300 0.010000 0.968900
vn 0.091700 0.009900 0.995700
vn 0.247300 0.006400 0.968900
vn 0.091700 0.006300 0.995800
vn 0.247300 0.005700 0.968900
vn 0.091700 0.005700 0.995800
vn -0.573300 0.019800 0.819100
vn -0.422200 0.019900 0.906300
vn -0.264100 0.019900 0.964300
vn -0.077900 0.020000 0.996800
vn -0.422500 0.010000 0.906300
vn -0.422500 0.006400 0.906300
vn -0.573700 0.006400 0.819000
vn -0.588900 0.029700 0.807700
vn 0.247400 -0.000500 0.968900
vn 0.091700 -0.000700 0.995800
vn -0.078000 -0.000600 0.997000
vn -0.078000 0.005700 0.996900
vn 0.602500 0.012900 0.798000
vn 0.666600 0.019700 0.745200
vn -0.654600 0.019600 0.755700
vn -0.663800 0.002400 0.747900
vn -0.666100 0.004400 0.745800
vn -0.604300 0.004400 0.796700
vn 0.588200 0.024100 0.808400
vn 0.426600 0.004400 0.904400
vn -0.078000 0.004400 0.996900
vn -0.264000 0.004400 0.964500
vn -0.422500 0.004400 0.906400
vn -0.666100 0.006300 0.745800
vn 0.588200 0.023800 0.808400
vn 0.426600 0.004100 0.904400
vn -0.078000 0.004100 0.996900
vn -0.264000 0.004100 0.964500
vn -0.422500 0.004100 0.906400
vn 0.660700 0.007200 0.750600
vn 0.660700 0.007500 0.750600
vn 0.666300 -0.006200 0.745600
vn 0.572000 -0.006800 0.820200
vn 0.426400 -0.007600 0.904500
vn -0.422300 -0.007600 0.906400
vn -0.583000 -0.024100 0.812100
vn -0.263900 -0.008100 0.964500
vn 0.091700 -0.008300 0.995800
vn -0.078000 -0.008300 0.996900
vn 0.247200 -0.008100 0.968900
vn -0.666100 -0.006200 0.745800
usemtl GL-Red-Mat
s 1
f 1/1/1 2/2/2 3/3/3 4/4/4
f 5/5/5 6/6/6 7/7/7 8/8/8
f 9/9/9 10/10/10 11/11/11 12/12/12
f 13/13/13 14/14/14 15/15/15 16/16/16
f 11/11/11 17/17/17 18/18/18 12/12/12
f 19/19/19 20/20/20 21/21/21 22/22/22
f 13/13/13 16/16/16 23/23/23 24/24/24
f 25/25/25 26/26/26 27/27/27 28/28/28
f 4/4/4 3/3/3 29/29/29 30/30/30
f 31/31/31 32/32/32 33/33/33 34/34/34
f 17/17/17 35/35/35 36/36/36 18/18/18
f 19/19/19 22/22/22 37/37/37 38/38/38
f 33/33/33 32/32/32 39/39/39 26/26/26
f 26/26/26 39/39/39 40/40/40 27/27/27
f 41/41/41 42/42/42 43/43/43 44/44/44
f 44/44/44 43/43/43 45/45/45 46/46/46
f 46/46/46 45/45/45 47/47/47 48/48/48
f 48/48/48 47/47/47 4/4/4 30/30/30
f 49/49/49 1/1/1 4/4/4 47/47/47
f 50/50/50 49/49/49 47/47/47 45/45/45
f 28/28/28 27/27/27 41/41/41 51/51/51
f 52/52/52 32/32/32 31/31/31 53/53/53
f 32/32/32 52/52/52 54/54/54 39/39/39
f 54/54/54 55/55/55 40/40/40 39/39/39
f 56/56/56 57/57/57 43/43/43 42/42/42
f 36/36/36 58/58/58 59/59/59 18/18/18
f 60/60/60 61/61/61 62/62/62 63/63/63
f 55/55/55 64/64/64 65/65/65 56/56/56
f 55/55/55 56/56/56 42/42/42 40/40/40
f 66/66/66 60/60/60 63/63/63 67/67/67
f 61/61/61 68/68/68 69/69/69 62/62/62
f 27/27/27 40/40/40 42/42/42 41/41/41
f 43/43/43 57/57/57 50/50/50 45/45/45
f 48/48/48 30/30/30 70/70/70 71/71/71
f 24/24/24 23/23/23 66/66/66 64/64/64
f 44/44/44 46/46/46 72/72/72 73/73/73
f 74/74/74 75/75/75 76/76/76 77/77/77
f 38/38/38 37/37/37 78/78/78 68/68/68
f 69/69/69 79/79/79 80/80/80 81/81/81
f 24/24/24 64/64/64 55/55/55 54/54/54
f 67/67/67 6/6/6 5/5/5 65/65/65
f 68/68/68 78/78/78 79/79/79 69/69/69
f 66/66/66 67/67/67 65/65/65 64/64/64
f 82/82/82 33/33/33 26/26/26 25/25/25
f 5/5/5 8/8/8 50/50/50 57/57/57
f 82/82/82 83/83/83 34/34/34 33/33/33
f 29/29/29 84/84/84 70/70/70 30/30/30
f 85/85/85 2/2/2 1/1/1 77/77/77
f 52/52/52 53/53/53 14/14/14 13/13/13
f 80/80/80 10/10/10 9/9/9 81/81/81
f 58/58/58 86/86/86 87/87/87 59/59/59
f 16/16/16 88/88/88 89/89/89 23/23/23
f 23/23/23 89/89/89 60/60/60 66/66/66
f 67/67/67 63/63/63 90/90/90 6/6/6
f 6/6/6 90/90/90 91/91/91 7/7/7
f 7/7/7 91/91/91 92/92/92 75/75/75
f 75/75/75 92/92/92 87/87/87 76/76/76
f 85/85/85 77/77/77 76/76/76 93/93/93
f 88/88/88 94/94/94 95/95/95 89/89/89
f 89/89/89 95/95/95 61/61/61 60/60/60
f 63/63/63 62/62/62 96/96/96 90/90/90
f 90/90/90 96/96/96 97/97/97 91/91/91
f 91/91/91 97/97/97 98/98/98 92/92/92
f 92/92/92 98/98/98 59/59/59 87/87/87
f 87/87/87 86/86/86 93/93/93 76/76/76
f 94/94/94 19/19/19 38/38/38 95/95/95
f 95/95/95 38/38/38 68/68/68 61/61/61
f 62/62/62 69/69/69 81/81/81 96/96/96
f 96/96/96 81/81/81 9/9/9 97/97/97
f 97/97/97 9/9/9 12/12/12 98/98/98
f 98/98/98 12/12/12 18/18/18 59/59/59
f 99/99/99 94/94/94 88/88/88 100/100/100
f 100/100/100 88/88/88 16/16/16 15/15/15
f 56/56/56 65/65/65 5/5/5 57/57/57
f 51/51/51 41/41/41 44/44/44 73/73/73
f 52/52/52 13/13/13 24/24/24 54/54/54
f 74/74/74 77/77/77 1/1/1 49/49/49
f 8/8/8 7/7/7 75/75/75 74/74/74
f 72/72/72 46/46/46 48/48/48 71/71/71
f 19/19/19 94/94/94 99/99/99 20/20/20
f 50/50/50 8/8/8 74/74/74 49/49/49
f 22/22/22 21/21/21 101/21/101 102/22/102
f 37/37/37 22/22/22 102/22/102 103/37/103
f 17/17/17 11/11/11 104/11/104 105/17/105
f 11/11/11 10/10/10 106/10/106 104/11/104
f 80/80/80 79/79/79 107/79/107 108/80/108
f 10/10/10 80/80/80 108/80/108 106/10/106
f 78/78/78 37/37/37 103/37/103 109/78/109
f 35/35/35 17/17/17 105/17/105 110/35/110
f 79/79/79 78/78/78 109/78/109 107/79/107
